PathFileType	4	(X/Y/Z)	Patient4_TMGait_0pt4_03_left_33.trc.trc
DataRate	CameraRate	NumFrames	NumMarkers	Units	OrigDataRate	OrigDataStartFrame	OrigNumFrames
72.538860103627	72.538860103627	6	33	mm	72.538860103627	89	       141
Frame#	Time	Sacral			L.Shoulder			Chest			R.Shoulder			Neck			R.ASIS			L.ASIS			R.Thigh.Superior			R.Thigh.Lateral			R.Thigh.Inferior			R.Patella			L.Thigh.Superior			L.Thigh.Lateral			L.Thigh.Inferior			L.Patella			L.Shank.Superior			L.Shank.Lateral			L.Shank.Inferior			R.Shank.Superior			R.Shank.Lateral			R.Shank.Inferior			R.Heel			R.Midfoot.Superior			R.Midfoot.Lateral			R.Toe			L.Heel			L.Midfoot.Lateral			L.Midfoot.Superior			L.Toe			L.Elbow			L.Wrist			R.Elbow			R.Wrist			
		X1	Y1	Z1	X2	Y2	Z2	X3	Y3	Z3	X4	Y4	Z4	X5	Y5	Z5	X6	Y6	Z6	X7	Y7	Z7	X8	Y8	Z8	X9	Y9	Z9	X10	Y10	Z10	X11	Y11	Z11	X12	Y12	Z12	X13	Y13	Z13	X14	Y14	Z14	X15	Y15	Z15	X16	Y16	Z16	X17	Y17	Z17	X18	Y18	Z18	X19	Y19	Z19	X20	Y20	Z20	X21	Y21	Z21	X22	Y22	Z22	X23	Y23	Z23	X24	Y24	Z24	X25	Y25	Z25	X26	Y26	Z26	X27	Y27	Z27	X28	Y28	Z28	X29	Y29	Z29	X30	Y30	Z30	X31	Y31	Z31	X32	Y32	Z32	X33	Y33	Z33	

89	44.763142857143	878.830724789467	998.644887604062	460.674936928430	1043.923196311082	1429.368247697403	275.997547412794	1140.636432677074	1371.494299847692	444.735885991052	1042.187906424577	1442.249859393752	612.211138778466	1012.393901249824	1494.429814675751	430.303264479692	1106.522557714887	943.125118079520	586.176288842649	1098.898923848087	963.968439908065	311.820033103902	1163.135177982034	746.150988050337	553.684776817252	1091.869121773316	631.689885485275	616.172865512917	1173.324612547762	584.177231150386	536.164269159207	1182.670946256173	493.461728136478	545.396129564723	1116.045574029350	736.536523290451	327.026129920201	1009.041298981520	634.846836536006	261.315229333457	1085.353079601899	542.029428621580	313.149999112902	1072.955076464937	463.730774537160	310.275631175536	1016.429294727202	405.127494220413	304.622954388875	885.625197896649	334.015353930008	261.889843482337	902.023932594607	204.116773432844	316.710456856133	1149.836818966017	404.454152051059	554.643346926046	1076.961110070293	304.054752072753	619.122014461719	1115.757589350437	206.411099806239	559.260616970644	980.667770709624	43.742071683203	532.999167821027	1148.877317990752	94.799374471587	569.829795868280	1061.513050041735	37.676999315818	610.889770090141	1269.804002236718	44.506985744225	606.868609663838	736.659124320337	87.452088480990	364.670528130361	801.298683647535	59.745293844851	282.596394641047	897.953925183253	103.467712511676	299.263194026018	1007.073045229345	36.574305985146	269.296307956736	1065.462369676473	1083.955780776755	144.633139171400	1218.349640417157	874.990669177568	102.659698952823	997.678445097051	1102.972343628665	745.609424415594	1145.397701201766	887.485279145608	736.790720426420	
90	44.776928571429	879.176136847217	999.415068877772	465.488100313475	1042.938649374764	1429.910452099106	279.466120561032	1141.218054041269	1372.106886884603	447.346549504422	1044.397133142184	1442.951354204341	615.664618445725	1012.810057633931	1494.999853190058	433.953736033649	1107.811108430232	943.612888806282	589.355488601977	1098.215850150500	964.424873735628	315.173793190088	1162.292905549482	745.455850695115	557.636617048623	1088.972809521408	631.615358013126	619.180999862407	1170.334570095817	583.544076679401	539.524437492737	1178.436863486424	493.002986353548	547.998645269860	1120.331603133144	738.320788768001	329.862808802865	1016.642170706871	634.506833588888	263.027421925452	1095.843950278309	542.862657719371	314.033959905813	1084.170364416161	463.265203465208	309.887119449410	1025.296327191633	405.090561382404	304.559889365448	891.991437328728	338.558848045763	262.310872590545	904.582963250450	207.977794115117	315.990711226656	1145.454655543140	404.150861840180	556.709649080790	1072.300123499376	303.688694036188	620.558801488445	1110.775840684414	206.200655449789	560.158584155411	975.076925406295	43.780115775573	533.124313054509	1143.431194862980	94.728208067144	570.295872339185	1055.924351194612	37.632954993280	611.029064082383	1264.300982975356	44.013602233777	607.071662151829	735.345519713036	98.483217508321	363.885485816404	798.425279545143	66.895037130134	282.133343388041	896.915436863317	106.093181274315	298.172912787613	1001.702486985422	35.795045360346	269.286821836398	1060.094792330850	1083.381693312794	150.186948225793	1200.942933179638	866.184591683641	108.622914252475	1005.898760542427	1103.629636752188	751.155351493388	1163.467882507642	895.757987224851	739.538723032424	
91	44.790714285714	879.244532635514	1000.093574117245	470.239913244248	1041.928306008038	1430.261586371427	282.835252146962	1141.797242196468	1372.484719565571	449.824662952207	1046.727810293301	1443.511603303764	619.000191036578	1013.298004393300	1495.429488932003	437.487248045027	1108.829015328807	943.923824627417	592.410709490885	1097.212888651732	964.677932398274	318.407033193789	1161.178051210813	744.747679640984	561.345084794924	1086.000944015974	631.551648509700	622.119706483933	1167.119481126929	582.914778499734	542.688311192587	1173.984042299120	492.556173617558	550.511297406349	1124.809388788093	740.298930685527	332.635172920175	1024.878996420149	634.235249252764	264.566343491527	1106.974057845806	544.016693943196	314.955373441911	1096.200114582905	463.178035716170	309.706789195046	1035.103700328514	405.281837175056	304.609060932128	899.508083769469	343.470278525706	262.589089515999	908.016380838949	212.422941433705	315.364176607131	1140.914725575481	403.853186466018	558.742203504650	1067.528204804548	303.315153601629	622.015183923282	1105.704880361313	205.987548023714	561.061586097718	969.443945111072	43.792872265493	533.271092020983	1137.992397884425	94.756606316962	570.901453703647	1050.305098302024	37.579209181351	611.191922570980	1258.761887279345	43.562852401626	607.252114338818	734.935776609044	110.883835954474	363.074352897309	796.225745079783	75.355452701870	281.637145772993	896.496941009415	109.424153711332	297.234782933711	996.428837175765	34.891180943829	269.315434204028	1054.175529876417	1082.674418672442	155.654384700170	1183.007133193265	858.152774817205	114.786137016154	1014.320029014946	1104.362690453054	756.697919363594	1181.612353174343	904.907196321158	741.987054823488	
92	44.804500000000	879.039238626375	1000.660992318761	474.889180124871	1040.887500210626	1430.422918911538	286.079836946637	1142.358125910112	1372.614807899033	452.145034305266	1049.153939760008	1443.907736260961	622.193067706540	1013.859519246302	1495.717274336775	440.881030756939	1109.564591247384	944.057608251147	595.293036612774	1095.894905535350	964.730827843366	321.465330667720	1159.813627224660	744.044920089474	564.698913564184	1083.047606342386	631.499612102261	624.943629758439	1163.730061947917	582.295828536538	545.567924087523	1169.382434070378	492.116251747647	552.870106505247	1129.331533180979	742.489457638305	335.311476877105	1033.558850765305	634.126480257553	265.964112488046	1118.494542057575	545.581815094797	315.955371814319	1108.812995194433	463.569588667876	309.801952553453	1045.669542795848	405.776003334136	304.827156879493	908.028102872990	348.723778608207	262.770242913676	912.265002022221	217.432235788358	314.899099226354	1136.278917742824	403.555564483983	560.695769575039	1062.699100418928	302.939989031123	623.460171170811	1100.580209815074	205.771922925170	561.948968245222	963.797590982116	43.784202333028	533.441353034703	1132.569270581583	94.872494403944	571.611828520759	1044.680111887781	37.520827899376	611.380220350450	1253.207952844302	43.173569288462	607.416262326582	735.487392629065	124.427533696164	362.286254578627	794.813051641712	85.030159506173	281.139786199207	896.735782208835	113.508869878804	296.509429142460	991.402385174463	33.912032981647	269.383517773163	1047.639775043820	1081.837004421224	161.040327452943	1164.690617093942	850.928952765864	121.147490204370	1022.955909388900	1105.148063862375	762.190110840910	1199.729770201350	914.897493032688	744.108323608457	
93	44.818285714286	878.577615841190	1001.122571601246	479.396752427313	1039.806397903432	1430.419097935142	289.177487408249	1142.882490167312	1372.511756800865	454.283536255746	1051.645591650931	1444.139628498382	625.219411216760	1014.489002432747	1495.880641301977	444.113186107991	1110.022142919205	944.034401699267	597.961887326322	1094.283967786496	964.613394739395	324.304839878475	1158.223772709463	743.361830248821	567.634765036004	1080.159979174104	631.456784142288	627.615691541565	1160.205851242055	581.691508112255	548.116523415419	1164.685222241054	491.682529912186	555.030259540370	1133.750051248986	744.918497436738	337.876806816051	1042.449949799793	634.279560503325	267.260740829149	1130.131520761965	547.639598497458	317.060932221671	1121.746631469446	464.526353070289	310.197892929297	1056.769517596117	406.647703723653	305.244352894458	917.346897979774	354.270997540793	262.907260773804	917.252153709299	222.941459086443	314.647566005963	1131.591450698187	403.257680368433	562.534657831179	1057.845991533913	302.570929845562	624.863151668367	1095.426065276481	205.556761480502	562.802581860051	958.158571984063	43.760085605084	533.633064627215	1127.159757247126	95.049814992880	572.378008437276	1039.065512838546	37.462109097597	611.590669086446	1247.653316486747	42.854526765470	607.569401117251	737.037327141646	138.743266871054	361.577679363681	794.306140517866	95.686717676330	280.679687153637	897.687434145427	118.328116875529	296.038032166005	986.848697808033	32.947940686192	269.489009805857	1040.446664138140	1080.905115857195	166.352795594179	1146.134986260132	844.529922401440	127.708413226890	1031.815634535788	1105.979077087367	767.573176355747	1217.711924517568	925.687997210508	745.872557938916	
94	44.832071428571	877.887690127841	1001.507980788573	483.726910848386	1038.673134738450	1430.295509574316	292.110945690214	1143.353024639296	1372.215002647489	456.219530355760	1054.173509079773	1444.229295951190	628.057942319050	1015.174389991396	1495.953084370593	447.164188112429	1110.220579609934	943.891595797769	600.390606013224	1092.415857302387	964.378453751165	326.897545849869	1156.431243073347	742.707906637410	570.138220454179	1077.341037428595	631.420366582613	630.108513213151	1156.574036393402	581.104496954415	550.327067108783	1159.926828210379	491.259370755445	556.968003689940	1137.927543390026	747.613269852698	340.332182201110	1051.302064999191	634.785738410232	268.495995795899	1141.608578248285	550.251571479329	318.277173177954	1134.724928186459	466.112097854622	310.874128421238	1068.156126259962	407.961796167027	305.858547225860	927.221634426748	360.034252580145	263.053650672060	922.898922347300	228.834020787984	314.636855698903	1126.877712346292	402.964603623825	564.234529762820	1052.983130416465	302.217593105421	626.198119592866	1090.255597439883	205.348062906816	563.608932434792	952.538985085740	43.727910991354	533.841862358306	1121.754193756953	95.253662087949	573.143735840635	1033.469311961450	37.406379641919	611.816634686180	1242.105619030887	42.605753559206	607.716196823947	739.606096428572	153.321009614578	361.004909581859	794.830613334911	106.953395896948	280.296030620539	899.434448697488	123.779969855459	295.835545553870	983.075774033244	32.125006313452	269.622452021878	1032.584648692626	1079.944972939777	171.601673289774	1127.471166905946	838.963256514027	134.471066164111	1040.898472272226	1106.866105980263	772.777617351218	1235.445795504306	937.234351064774	747.248968097205	
